<mxfile host="app.diagrams.net" agent="Mozilla/5.0 (X11; Ubuntu; Linux x86_64; rv:137.0) Gecko/20100101 Firefox/137.0" version="26.2.6">
  <diagram name="Página-1" id="zZZ8uDul51QJqdM6ozN6">
    <mxGraphModel dx="632" dy="714" grid="1" gridSize="10" guides="1" tooltips="1" connect="1" arrows="1" fold="1" page="1" pageScale="1" pageWidth="827" pageHeight="1169" math="0" shadow="0">
      <root>
        <mxCell id="0" />
        <mxCell id="1" parent="0" />
        <mxCell id="lGeH4csDWYJscvn6PiZ9-28" value="" style="rounded=0;whiteSpace=wrap;html=1;" vertex="1" parent="1">
          <mxGeometry x="460" y="590" width="320" height="140" as="geometry" />
        </mxCell>
        <mxCell id="lGeH4csDWYJscvn6PiZ9-25" value="" style="rounded=0;whiteSpace=wrap;html=1;" vertex="1" parent="1">
          <mxGeometry x="30" y="600" width="370" height="100" as="geometry" />
        </mxCell>
        <mxCell id="lGeH4csDWYJscvn6PiZ9-12" value="" style="rounded=0;whiteSpace=wrap;html=1;" vertex="1" parent="1">
          <mxGeometry x="439.5" y="160" width="230" height="100" as="geometry" />
        </mxCell>
        <mxCell id="lGeH4csDWYJscvn6PiZ9-7" value="" style="rounded=0;whiteSpace=wrap;html=1;" vertex="1" parent="1">
          <mxGeometry x="145.5" y="160" width="230" height="100" as="geometry" />
        </mxCell>
        <mxCell id="lGeH4csDWYJscvn6PiZ9-13" style="edgeStyle=orthogonalEdgeStyle;rounded=0;orthogonalLoop=1;jettySize=auto;html=1;entryX=0.5;entryY=0;entryDx=0;entryDy=0;exitX=0;exitY=0.5;exitDx=0;exitDy=0;" edge="1" parent="1" source="lGeH4csDWYJscvn6PiZ9-1" target="lGeH4csDWYJscvn6PiZ9-2">
          <mxGeometry relative="1" as="geometry" />
        </mxCell>
        <mxCell id="lGeH4csDWYJscvn6PiZ9-14" value="recomendado" style="edgeLabel;html=1;align=center;verticalAlign=middle;resizable=0;points=[];" vertex="1" connectable="0" parent="lGeH4csDWYJscvn6PiZ9-13">
          <mxGeometry x="0.2115" y="-1" relative="1" as="geometry">
            <mxPoint as="offset" />
          </mxGeometry>
        </mxCell>
        <mxCell id="lGeH4csDWYJscvn6PiZ9-1" value="&lt;b&gt;&lt;u&gt;Declaração de Arrays Sintaxes&lt;/u&gt;&lt;/b&gt;" style="text;strokeColor=none;align=center;fillColor=none;html=1;verticalAlign=middle;whiteSpace=wrap;rounded=0;fontSize=18;" vertex="1" parent="1">
          <mxGeometry x="279" y="80" width="270" height="40" as="geometry" />
        </mxCell>
        <mxCell id="lGeH4csDWYJscvn6PiZ9-2" value="1. Usando o estilo Java (recomendado)" style="text;strokeColor=none;align=center;fillColor=none;html=1;verticalAlign=middle;whiteSpace=wrap;rounded=0;" vertex="1" parent="1">
          <mxGeometry x="145.5" y="160" width="220" height="30" as="geometry" />
        </mxCell>
        <mxCell id="lGeH4csDWYJscvn6PiZ9-4" value="&lt;pre class=&quot;x:px-4 x:py-2&quot;&gt;&lt;code class=&quot;x:font-mono&quot; style=&quot;white-space: pre;&quot;&gt;&lt;span class=&quot;token&quot; style=&quot;color: rgb(86, 156, 214);&quot;&gt;int&lt;/span&gt;&lt;span class=&quot;token&quot; style=&quot;color: rgb(212, 212, 212);&quot;&gt;[&lt;/span&gt;&lt;span class=&quot;token&quot; style=&quot;color: rgb(212, 212, 212);&quot;&gt;]&lt;/span&gt;&lt;span&gt; numeros&lt;/span&gt;&lt;span class=&quot;token&quot; style=&quot;color: rgb(212, 212, 212);&quot;&gt;;&lt;/span&gt;&lt;span&gt;&#xa;&lt;/span&gt;&lt;span&gt;&lt;/span&gt;&lt;span class=&quot;token&quot; style=&quot;color: rgb(78, 201, 176);&quot;&gt;String&lt;/span&gt;&lt;span class=&quot;token&quot; style=&quot;color: rgb(212, 212, 212);&quot;&gt;[&lt;/span&gt;&lt;span class=&quot;token&quot; style=&quot;color: rgb(212, 212, 212);&quot;&gt;]&lt;/span&gt;&lt;span&gt; palavras&lt;/span&gt;&lt;span class=&quot;token&quot; style=&quot;color: rgb(212, 212, 212);&quot;&gt;;&lt;/span&gt;&lt;span&gt;&#xa;&lt;/span&gt;&lt;span&gt;&lt;/span&gt;&lt;span class=&quot;token&quot; style=&quot;color: rgb(86, 156, 214);&quot;&gt;double&lt;/span&gt;&lt;span class=&quot;token&quot; style=&quot;color: rgb(212, 212, 212);&quot;&gt;[&lt;/span&gt;&lt;span class=&quot;token&quot; style=&quot;color: rgb(212, 212, 212);&quot;&gt;]&lt;/span&gt;&lt;span&gt; valores&lt;/span&gt;&lt;span class=&quot;token&quot; style=&quot;color: rgb(212, 212, 212);&quot;&gt;;&lt;/span&gt;&lt;/code&gt;&lt;/pre&gt;" style="text;whiteSpace=wrap;html=1;" vertex="1" parent="1">
          <mxGeometry x="165.5" y="180" width="160" height="90" as="geometry" />
        </mxCell>
        <mxCell id="lGeH4csDWYJscvn6PiZ9-5" value="2. Estilo herdado de C/C++" style="text;strokeColor=none;align=center;fillColor=none;html=1;verticalAlign=middle;whiteSpace=wrap;rounded=0;" vertex="1" parent="1">
          <mxGeometry x="444.5" y="160" width="220" height="30" as="geometry" />
        </mxCell>
        <mxCell id="lGeH4csDWYJscvn6PiZ9-9" value="&lt;pre class=&quot;x:px-4 x:py-2&quot;&gt;&lt;code class=&quot;x:font-mono&quot; style=&quot;white-space: pre;&quot;&gt;&lt;span class=&quot;token&quot; style=&quot;color: rgb(86, 156, 214);&quot;&gt;int&lt;/span&gt;&lt;span&gt; numeros&lt;/span&gt;&lt;span class=&quot;token&quot; style=&quot;color: rgb(212, 212, 212);&quot;&gt;[&lt;/span&gt;&lt;span class=&quot;token&quot; style=&quot;color: rgb(212, 212, 212);&quot;&gt;]&lt;/span&gt;&lt;span class=&quot;token&quot; style=&quot;color: rgb(212, 212, 212);&quot;&gt;;&lt;/span&gt;&lt;span&gt;&#xa;&lt;/span&gt;&lt;span&gt;&lt;/span&gt;&lt;span class=&quot;token&quot; style=&quot;color: rgb(78, 201, 176);&quot;&gt;String&lt;/span&gt;&lt;span&gt; palavras&lt;/span&gt;&lt;span class=&quot;token&quot; style=&quot;color: rgb(212, 212, 212);&quot;&gt;[&lt;/span&gt;&lt;span class=&quot;token&quot; style=&quot;color: rgb(212, 212, 212);&quot;&gt;]&lt;/span&gt;&lt;span class=&quot;token&quot; style=&quot;color: rgb(212, 212, 212);&quot;&gt;;&lt;/span&gt;&lt;span&gt;&#xa;&lt;/span&gt;&lt;span&gt;&lt;/span&gt;&lt;span class=&quot;token&quot; style=&quot;color: rgb(86, 156, 214);&quot;&gt;double&lt;/span&gt;&lt;span&gt; valores&lt;/span&gt;&lt;span class=&quot;token&quot; style=&quot;color: rgb(212, 212, 212);&quot;&gt;[&lt;/span&gt;&lt;span class=&quot;token&quot; style=&quot;color: rgb(212, 212, 212);&quot;&gt;]&lt;/span&gt;&lt;span class=&quot;token&quot; style=&quot;color: rgb(212, 212, 212);&quot;&gt;;&lt;/span&gt;&lt;/code&gt;&lt;/pre&gt;" style="text;whiteSpace=wrap;html=1;" vertex="1" parent="1">
          <mxGeometry x="474.5" y="180" width="160" height="90" as="geometry" />
        </mxCell>
        <mxCell id="lGeH4csDWYJscvn6PiZ9-18" value="&lt;b&gt;&lt;u&gt;Inicialização de Arrays&lt;/u&gt;&lt;/b&gt;" style="text;strokeColor=none;align=center;fillColor=none;html=1;verticalAlign=middle;whiteSpace=wrap;rounded=0;fontSize=18;" vertex="1" parent="1">
          <mxGeometry x="20" y="400" width="270" height="40" as="geometry" />
        </mxCell>
        <mxCell id="lGeH4csDWYJscvn6PiZ9-20" value="" style="rounded=0;whiteSpace=wrap;html=1;" vertex="1" parent="1">
          <mxGeometry x="45" y="460" width="705" height="100" as="geometry" />
        </mxCell>
        <mxCell id="lGeH4csDWYJscvn6PiZ9-21" value="1. Sem valores definidos" style="text;strokeColor=none;align=center;fillColor=none;html=1;verticalAlign=middle;whiteSpace=wrap;rounded=0;" vertex="1" parent="1">
          <mxGeometry x="45" y="460" width="220" height="30" as="geometry" />
        </mxCell>
        <mxCell id="lGeH4csDWYJscvn6PiZ9-22" value="&lt;pre class=&quot;x:px-4 x:py-2&quot;&gt;&lt;code class=&quot;x:font-mono&quot; style=&quot;white-space: pre;&quot;&gt;&lt;span class=&quot;token&quot; style=&quot;color: rgb(86, 156, 214);&quot;&gt;int&lt;/span&gt;&lt;span class=&quot;token&quot; style=&quot;color: rgb(212, 212, 212);&quot;&gt;[&lt;/span&gt;&lt;span class=&quot;token&quot; style=&quot;color: rgb(212, 212, 212);&quot;&gt;]&lt;/span&gt;&lt;span&gt; numeros &lt;/span&gt;&lt;span class=&quot;token&quot; style=&quot;color: rgb(212, 212, 212);&quot;&gt;=&lt;/span&gt;&lt;span&gt; &lt;/span&gt;&lt;span class=&quot;token&quot; style=&quot;color: rgb(86, 156, 214);&quot;&gt;new&lt;/span&gt;&lt;span&gt; &lt;/span&gt;&lt;span class=&quot;token&quot; style=&quot;color: rgb(86, 156, 214);&quot;&gt;int&lt;/span&gt;&lt;span class=&quot;token&quot; style=&quot;color: rgb(212, 212, 212);&quot;&gt;[&lt;/span&gt;&lt;span class=&quot;token&quot; style=&quot;color: rgb(181, 206, 168);&quot;&gt;5&lt;/span&gt;&lt;span class=&quot;token&quot; style=&quot;color: rgb(212, 212, 212);&quot;&gt;]&lt;/span&gt;&lt;span class=&quot;token&quot; style=&quot;color: rgb(212, 212, 212);&quot;&gt;;&lt;/span&gt;&lt;span&gt; &lt;/span&gt;&lt;span class=&quot;token&quot; style=&quot;color: rgb(106, 153, 85);&quot;&gt;// Array com 5 posições, preenchido com valor padrão (0 para int).&lt;/span&gt;&lt;span&gt;&#xa;&lt;/span&gt;&lt;span&gt;&lt;/span&gt;&lt;span class=&quot;token&quot; style=&quot;color: rgb(78, 201, 176);&quot;&gt;String&lt;/span&gt;&lt;span class=&quot;token&quot; style=&quot;color: rgb(212, 212, 212);&quot;&gt;[&lt;/span&gt;&lt;span class=&quot;token&quot; style=&quot;color: rgb(212, 212, 212);&quot;&gt;]&lt;/span&gt;&lt;span&gt; palavras &lt;/span&gt;&lt;span class=&quot;token&quot; style=&quot;color: rgb(212, 212, 212);&quot;&gt;=&lt;/span&gt;&lt;span&gt; &lt;/span&gt;&lt;span class=&quot;token&quot; style=&quot;color: rgb(86, 156, 214);&quot;&gt;new&lt;/span&gt;&lt;span&gt; &lt;/span&gt;&lt;span class=&quot;token&quot; style=&quot;color: rgb(78, 201, 176);&quot;&gt;String&lt;/span&gt;&lt;span class=&quot;token&quot; style=&quot;color: rgb(212, 212, 212);&quot;&gt;[&lt;/span&gt;&lt;span class=&quot;token&quot; style=&quot;color: rgb(181, 206, 168);&quot;&gt;3&lt;/span&gt;&lt;span class=&quot;token&quot; style=&quot;color: rgb(212, 212, 212);&quot;&gt;]&lt;/span&gt;&lt;span class=&quot;token&quot; style=&quot;color: rgb(212, 212, 212);&quot;&gt;;&lt;/span&gt;&lt;span&gt; &lt;/span&gt;&lt;span class=&quot;token&quot; style=&quot;color: rgb(106, 153, 85);&quot;&gt;// Array com 3 posições, preenchido com null.&lt;/span&gt;&lt;span&gt;&lt;/span&gt;&lt;/code&gt;&lt;/pre&gt;" style="text;whiteSpace=wrap;html=1;" vertex="1" parent="1">
          <mxGeometry x="60" y="490" width="690" height="60" as="geometry" />
        </mxCell>
        <mxCell id="lGeH4csDWYJscvn6PiZ9-23" value="2. Inicialização com valores específicos" style="text;strokeColor=none;align=center;fillColor=none;html=1;verticalAlign=middle;whiteSpace=wrap;rounded=0;" vertex="1" parent="1">
          <mxGeometry x="90" y="600" width="220" height="30" as="geometry" />
        </mxCell>
        <mxCell id="lGeH4csDWYJscvn6PiZ9-24" value="&lt;pre class=&quot;x:px-4 x:py-2&quot;&gt;&lt;code class=&quot;x:font-mono&quot; style=&quot;white-space: pre;&quot;&gt;&lt;span class=&quot;token&quot; style=&quot;color: rgb(86, 156, 214);&quot;&gt;int&lt;/span&gt;&lt;span class=&quot;token&quot; style=&quot;color: rgb(212, 212, 212);&quot;&gt;[&lt;/span&gt;&lt;span class=&quot;token&quot; style=&quot;color: rgb(212, 212, 212);&quot;&gt;]&lt;/span&gt;&lt;span&gt; numeros &lt;/span&gt;&lt;span class=&quot;token&quot; style=&quot;color: rgb(212, 212, 212);&quot;&gt;=&lt;/span&gt;&lt;span&gt; &lt;/span&gt;&lt;span class=&quot;token&quot; style=&quot;color: rgb(212, 212, 212);&quot;&gt;{&lt;/span&gt;&lt;span class=&quot;token&quot; style=&quot;color: rgb(181, 206, 168);&quot;&gt;1&lt;/span&gt;&lt;span class=&quot;token&quot; style=&quot;color: rgb(212, 212, 212);&quot;&gt;,&lt;/span&gt;&lt;span&gt; &lt;/span&gt;&lt;span class=&quot;token&quot; style=&quot;color: rgb(181, 206, 168);&quot;&gt;2&lt;/span&gt;&lt;span class=&quot;token&quot; style=&quot;color: rgb(212, 212, 212);&quot;&gt;,&lt;/span&gt;&lt;span&gt; &lt;/span&gt;&lt;span class=&quot;token&quot; style=&quot;color: rgb(181, 206, 168);&quot;&gt;3&lt;/span&gt;&lt;span class=&quot;token&quot; style=&quot;color: rgb(212, 212, 212);&quot;&gt;,&lt;/span&gt;&lt;span&gt; &lt;/span&gt;&lt;span class=&quot;token&quot; style=&quot;color: rgb(181, 206, 168);&quot;&gt;4&lt;/span&gt;&lt;span class=&quot;token&quot; style=&quot;color: rgb(212, 212, 212);&quot;&gt;,&lt;/span&gt;&lt;span&gt; &lt;/span&gt;&lt;span class=&quot;token&quot; style=&quot;color: rgb(181, 206, 168);&quot;&gt;5&lt;/span&gt;&lt;span class=&quot;token&quot; style=&quot;color: rgb(212, 212, 212);&quot;&gt;}&lt;/span&gt;&lt;span class=&quot;token&quot; style=&quot;color: rgb(212, 212, 212);&quot;&gt;;&lt;/span&gt;&lt;span&gt;&#xa;&lt;/span&gt;&lt;span&gt;&lt;/span&gt;&lt;span class=&quot;token&quot; style=&quot;color: rgb(78, 201, 176);&quot;&gt;String&lt;/span&gt;&lt;span class=&quot;token&quot; style=&quot;color: rgb(212, 212, 212);&quot;&gt;[&lt;/span&gt;&lt;span class=&quot;token&quot; style=&quot;color: rgb(212, 212, 212);&quot;&gt;]&lt;/span&gt;&lt;span&gt; palavras &lt;/span&gt;&lt;span class=&quot;token&quot; style=&quot;color: rgb(212, 212, 212);&quot;&gt;=&lt;/span&gt;&lt;span&gt; &lt;/span&gt;&lt;span class=&quot;token&quot; style=&quot;color: rgb(212, 212, 212);&quot;&gt;{&lt;/span&gt;&lt;span class=&quot;token&quot; style=&quot;color: rgb(206, 145, 120);&quot;&gt;&quot;Java&quot;&lt;/span&gt;&lt;span class=&quot;token&quot; style=&quot;color: rgb(212, 212, 212);&quot;&gt;,&lt;/span&gt;&lt;span&gt; &lt;/span&gt;&lt;span class=&quot;token&quot; style=&quot;color: rgb(206, 145, 120);&quot;&gt;&quot;Python&quot;&lt;/span&gt;&lt;span class=&quot;token&quot; style=&quot;color: rgb(212, 212, 212);&quot;&gt;,&lt;/span&gt;&lt;span&gt; &lt;/span&gt;&lt;span class=&quot;token&quot; style=&quot;color: rgb(206, 145, 120);&quot;&gt;&quot;C++&quot;&lt;/span&gt;&lt;span class=&quot;token&quot; style=&quot;color: rgb(212, 212, 212);&quot;&gt;}&lt;/span&gt;&lt;span class=&quot;token&quot; style=&quot;color: rgb(212, 212, 212);&quot;&gt;;&lt;/span&gt;&lt;/code&gt;&lt;/pre&gt;" style="text;whiteSpace=wrap;html=1;" vertex="1" parent="1">
          <mxGeometry x="45" y="630" width="370" height="80" as="geometry" />
        </mxCell>
        <mxCell id="lGeH4csDWYJscvn6PiZ9-26" value="3. Inicialização após declaração" style="text;strokeColor=none;align=center;fillColor=none;html=1;verticalAlign=middle;whiteSpace=wrap;rounded=0;" vertex="1" parent="1">
          <mxGeometry x="470" y="600" width="220" height="30" as="geometry" />
        </mxCell>
        <mxCell id="lGeH4csDWYJscvn6PiZ9-27" value="&lt;pre class=&quot;x:px-4 x:py-2&quot;&gt;&lt;code class=&quot;x:font-mono&quot; style=&quot;white-space: pre;&quot;&gt;&lt;span class=&quot;token&quot; style=&quot;color: rgb(86, 156, 214);&quot;&gt;int&lt;/span&gt;&lt;span class=&quot;token&quot; style=&quot;color: rgb(212, 212, 212);&quot;&gt;[&lt;/span&gt;&lt;span class=&quot;token&quot; style=&quot;color: rgb(212, 212, 212);&quot;&gt;]&lt;/span&gt;&lt;span&gt; numeros&lt;/span&gt;&lt;span class=&quot;token&quot; style=&quot;color: rgb(212, 212, 212);&quot;&gt;;&lt;/span&gt;&lt;span&gt;&#xa;&lt;/span&gt;&lt;span&gt;numeros &lt;/span&gt;&lt;span class=&quot;token&quot; style=&quot;color: rgb(212, 212, 212);&quot;&gt;=&lt;/span&gt;&lt;span&gt; &lt;/span&gt;&lt;span class=&quot;token&quot; style=&quot;color: rgb(86, 156, 214);&quot;&gt;new&lt;/span&gt;&lt;span&gt; &lt;/span&gt;&lt;span class=&quot;token&quot; style=&quot;color: rgb(86, 156, 214);&quot;&gt;int&lt;/span&gt;&lt;span class=&quot;token&quot; style=&quot;color: rgb(212, 212, 212);&quot;&gt;[&lt;/span&gt;&lt;span class=&quot;token&quot; style=&quot;color: rgb(212, 212, 212);&quot;&gt;]&lt;/span&gt;&lt;span class=&quot;token&quot; style=&quot;color: rgb(212, 212, 212);&quot;&gt;{&lt;/span&gt;&lt;span class=&quot;token&quot; style=&quot;color: rgb(181, 206, 168);&quot;&gt;10&lt;/span&gt;&lt;span class=&quot;token&quot; style=&quot;color: rgb(212, 212, 212);&quot;&gt;,&lt;/span&gt;&lt;span&gt; &lt;/span&gt;&lt;span class=&quot;token&quot; style=&quot;color: rgb(181, 206, 168);&quot;&gt;20&lt;/span&gt;&lt;span class=&quot;token&quot; style=&quot;color: rgb(212, 212, 212);&quot;&gt;,&lt;/span&gt;&lt;span&gt; &lt;/span&gt;&lt;span class=&quot;token&quot; style=&quot;color: rgb(181, 206, 168);&quot;&gt;30&lt;/span&gt;&lt;span class=&quot;token&quot; style=&quot;color: rgb(212, 212, 212);&quot;&gt;}&lt;/span&gt;&lt;span class=&quot;token&quot; style=&quot;color: rgb(212, 212, 212);&quot;&gt;;&lt;/span&gt;&lt;span&gt;&#xa;&lt;/span&gt;&#xa;&lt;span&gt;&lt;/span&gt;&lt;span class=&quot;token&quot; style=&quot;color: rgb(78, 201, 176);&quot;&gt;String&lt;/span&gt;&lt;span class=&quot;token&quot; style=&quot;color: rgb(212, 212, 212);&quot;&gt;[&lt;/span&gt;&lt;span class=&quot;token&quot; style=&quot;color: rgb(212, 212, 212);&quot;&gt;]&lt;/span&gt;&lt;span&gt; palavras&lt;/span&gt;&lt;span class=&quot;token&quot; style=&quot;color: rgb(212, 212, 212);&quot;&gt;;&lt;/span&gt;&lt;span&gt;&#xa;&lt;/span&gt;&lt;span&gt;palavras &lt;/span&gt;&lt;span class=&quot;token&quot; style=&quot;color: rgb(212, 212, 212);&quot;&gt;=&lt;/span&gt;&lt;span&gt; &lt;/span&gt;&lt;span class=&quot;token&quot; style=&quot;color: rgb(86, 156, 214);&quot;&gt;new&lt;/span&gt;&lt;span&gt; &lt;/span&gt;&lt;span class=&quot;token&quot; style=&quot;color: rgb(78, 201, 176);&quot;&gt;String&lt;/span&gt;&lt;span class=&quot;token&quot; style=&quot;color: rgb(212, 212, 212);&quot;&gt;[&lt;/span&gt;&lt;span class=&quot;token&quot; style=&quot;color: rgb(212, 212, 212);&quot;&gt;]&lt;/span&gt;&lt;span class=&quot;token&quot; style=&quot;color: rgb(212, 212, 212);&quot;&gt;{&lt;/span&gt;&lt;span class=&quot;token&quot; style=&quot;color: rgb(206, 145, 120);&quot;&gt;&quot;Hello&quot;&lt;/span&gt;&lt;span class=&quot;token&quot; style=&quot;color: rgb(212, 212, 212);&quot;&gt;,&lt;/span&gt;&lt;span&gt; &lt;/span&gt;&lt;span class=&quot;token&quot; style=&quot;color: rgb(206, 145, 120);&quot;&gt;&quot;World&quot;&lt;/span&gt;&lt;span class=&quot;token&quot; style=&quot;color: rgb(212, 212, 212);&quot;&gt;}&lt;/span&gt;&lt;span class=&quot;token&quot; style=&quot;color: rgb(212, 212, 212);&quot;&gt;;&lt;/span&gt;&lt;/code&gt;&lt;/pre&gt;" style="text;whiteSpace=wrap;html=1;" vertex="1" parent="1">
          <mxGeometry x="470" y="630" width="340" height="120" as="geometry" />
        </mxCell>
      </root>
    </mxGraphModel>
  </diagram>
</mxfile>
